# xmcd
#
# Track frame offsets: 
#        150
#        10713
#        25456
#        38758
#        50009
#        63865
#        74437
#        87387
#        98114
#        109246
#        121222
#        132062
#        143600
#        157007
#        164973
#        177198
#        187875
#        200300
#        213506
#        224207
#        235157
#        247100
#        258651
#        268588
#
# Disc length: 3736 seconds
#
# Revision: 2
# Processed by: cddbd v1.5.2PL0 Copyright (c) Steve Scherf et al.
# Submitted via: ExactAudioCopyFreeDBPlugin 1.0
#
DISCID=6a0e9618
DTITLE=Irma Thomas - Wish Someone Would Care and Take A Look
DYEAR=2006
DGENRE=Soul
TTITLE0=Wish Someone Would Care
TTITLE1=I Need Your Love So Bad
TTITLE2=Without Love (There is Nothing)
TTITLE3=Please Send Me Someone to Love
TTITLE4=Another Woman's Man
TTITLE5=Sufferin' with the Blues
TTITLE6=Time is on My Side
TTITLE7=While the City Sleeps
TTITLE8=Straight from the Heart
TTITLE9=I've Been There
TTITLE10=I Need You So
TTITLE11=Break-A-Way
TTITLE12=Take a Look
TTITLE13=Teasing, But You're Pleasing
TTITLE14=I Haven't Got Time to Cry
TTITLE15=You Don't Miss a Good Thing (Until It's Gone)
TTITLE16=Some Things You Never Get Used To
TTITLE17=Anyone Who Knows What Love Is (Will Understand)
TTITLE18=It's Starting to Get to Me Now
TTITLE19=Times Have Changed
TTITLE20=He's My Guy
TTITLE21=Baby Don't Look Down
TTITLE22=What Are You Trying to Do
TTITLE23=Wait, Wait, Wait
EXTD=
EXTT0=
EXTT1=
EXTT2=
EXTT3=
EXTT4=
EXTT5=
EXTT6=
EXTT7=
EXTT8=
EXTT9=
EXTT10=
EXTT11=
EXTT12=
EXTT13=
EXTT14=
EXTT15=
EXTT16=
EXTT17=
EXTT18=
EXTT19=
EXTT20=
EXTT21=
EXTT22=
EXTT23=
PLAYORDER=
